<?xml version="1.0" encoding="UTF-8" standalone="no"?>
<!-- Created with Inkscape (http://www.inkscape.org/) -->

<svg
   width="83.123856mm"
   height="78.851494mm"
   viewBox="0 0 83.123857 78.851488"
   version="1.1"
   id="svg5"
   xml:space="preserve"
   xmlns="http://www.w3.org/2000/svg"
   xmlns:svg="http://www.w3.org/2000/svg"><defs
     id="defs2" /><g
     id="layer1"
     transform="translate(-35.982943,-44.251083)"><g
       id="g12083"
       transform="translate(-55.199951)"><g
         id="g15851"
         transform="translate(-4.2580642)"><path
           style="fill:#5ebaca;fill-opacity:1;stroke-width:0.264583"
           d="m 129.48759,122.67801 c -8.53535,-1.31781 -16.02428,-5.16333 -22.24214,-11.4212 -1.53645,-1.54635 -2.9079,-2.70924 -3.19083,-2.7056 -0.27291,0.004 -2.32262,0.46904 -4.554928,1.03452 l -4.058734,1.02814 0.152173,-2.68817 c 0.335712,-5.93044 0.512675,-12.638407 0.552535,-20.944417 0.03423,-7.13321 0.125689,-9.13396 0.499696,-10.93155 3.894908,-18.72011 19.851148,-31.79865 38.795348,-31.79865 13.60186,0 25.75801,6.62495 33.21924,18.10409 1.45016,2.23108 3.81836,7.03976 3.82115,7.75893 0.002,0.45655 0.86022,0.40781 3.11013,-0.17659 1.05503,-0.27404 1.91965,-0.48036 1.92138,-0.45849 0.0844,1.06644 1.04989,19.35571 1.05204,19.92898 0.003,0.83384 -0.0108,0.84245 -2.16873,1.34493 l -2.17187,0.50572 -0.35276,1.43319 c -2.67794,10.879707 -9.62976,20.098767 -19.19396,25.453777 -7.36628,4.1244 -16.81767,5.82498 -25.18974,4.53239 z m 12.83229,-4.97011 c 8.32252,-1.93143 15.0909,-6.34503 20.28277,-13.22619 2.4678,-3.27076 5.99721,-10.518657 5.6019,-11.503907 -0.0483,-0.12036 -0.4585,-0.12063 -0.91159,-5.3e-4 -0.70974,0.18801 -0.90684,0.44741 -1.4237,1.87366 -3.9828,10.990357 -13.31403,19.011467 -24.85203,21.362757 -3.29439,0.67136 -8.99904,0.72621 -12.20846,0.1174 -6.17183,-1.17078 -11.84402,-3.95041 -16.46063,-8.06645 -1.41134,-1.25832 -1.6026,-1.34944 -2.48486,-1.18393 l -0.95584,0.17932 1.29424,1.32104 c 4.87595,4.9769 12.51351,8.72875 19.81507,9.73388 3.11002,0.42813 9.12068,0.1316 12.30313,-0.60697 z m -1.05833,-3.84673 c 9.41824,-2.11524 17.19105,-8.34748 21.34339,-17.113147 0.65856,-1.39023 1.13485,-2.59023 1.05841,-2.66667 -0.0764,-0.0764 -0.50788,-0.0579 -0.95878,0.0411 -0.69759,0.15322 -0.95517,0.4627 -1.72765,2.07571 -1.49398,3.11961 -2.9974,5.189767 -5.80681,7.995767 -2.74196,2.73864 -4.57078,4.09343 -7.55856,5.59935 -6.55938,3.30609 -14.87334,3.92676 -21.99662,1.64214 -2.56519,-0.82273 -6.23063,-2.71848 -8.35634,-4.32187 -1.82863,-1.37931 -1.95149,-1.42949 -2.87528,-1.17443 l -0.96502,0.26646 0.8909,0.76603 c 4.39423,3.77835 10.65917,6.62564 16.23673,7.37927 2.62717,0.35498 8.06013,0.10669 10.71563,-0.4897 z m -2.46972,-11.26945 c 8.10079,-1.96453 14.77932,-3.622467 14.84118,-3.684327 0.0618,-0.0619 0.0122,-0.28603 -0.11023,-0.49817 -0.18692,-0.32376 -2.60266,0.19075 -15.03936,3.203147 -8.14917,1.97387 -14.86114,3.62166 -14.9155,3.66175 -0.13509,0.0996 0.18002,0.88946 0.35486,0.88946 0.0772,0 6.76826,-1.60734 14.86905,-3.57186 z m -32.10636,1.31321 c 1.48158,-0.36912 2.82821,-0.71705 2.99252,-0.77316 0.21801,-0.0745 0.22384,-0.42931 0.0216,-1.31324 -0.15243,-0.66616 -0.34897,-1.2112 -0.43674,-1.2112 -0.0878,0 -0.96042,0.22206 -1.93921,0.49347 l -1.77963,0.49348 -0.24664,-0.9565 c -0.13565,-0.52607 -0.79267,-3.099617 -1.46002,-5.718987 -0.66737,-2.61938 -1.2633,-4.90097 -1.3243,-5.0702 -0.16555,-0.45923 -2.670272,0.23622 -2.622508,0.72816 0.04427,0.45593 2.616528,10.678707 3.172998,12.610257 0.2201,0.76399 0.51899,1.38907 0.66419,1.38907 0.1452,0 1.4762,-0.30202 2.95778,-0.67115 z m 46.73659,-7.074527 c 0.1992,-0.81684 -0.93819,-0.60577 -14.76827,2.74056 -8.0415,1.945727 -14.75041,3.617717 -14.90868,3.715527 -0.15827,0.0978 -0.22137,0.35084 -0.14024,0.56227 0.12072,0.3146 2.83763,-0.26928 14.95735,-3.21444 8.14541,-1.979377 14.83234,-3.691137 14.85984,-3.803917 z m -40.66937,5.615097 c 0.5457,-0.15155 0.99219,-0.40494 0.99219,-0.5631 0,-0.252 -3.44544,-14.036807 -3.53718,-14.151847 -0.0195,-0.0245 -0.61273,0.0876 -1.31826,0.24905 -1.23882,0.28348 -1.27826,0.32146 -1.15059,1.1082 0.36929,2.27561 3.4763,13.635987 3.72904,13.634717 0.16094,-8e-4 0.7391,-0.12547 1.2848,-0.27702 z m 4.49792,-1.05833 c 0.5457,-0.15156 0.99219,-0.33645 0.99219,-0.41088 0,-0.11786 -1.36492,-5.660127 -1.75244,-7.115837 -0.0775,-0.29104 0.52626,0.50153 1.34165,1.76126 1.39567,2.15624 1.52476,2.27918 2.20343,2.09828 0.70045,-0.1867 0.72631,-0.26209 0.91184,-2.65776 0.10502,-1.35609 0.23082,-2.50549 0.27955,-2.55422 0.0487,-0.0487 0.49263,1.57508 0.98644,3.60848 0.4938,2.0334 1.00903,3.69709 1.14495,3.69709 0.20368,0 2.29117,-0.55137 2.48178,-0.65551 0.0863,-0.0472 -3.57935,-14.20025 -3.71236,-14.33326 -0.064,-0.064 -0.65658,0.0197 -1.31691,0.186 -1.43891,0.36233 -1.40772,0.26917 -1.65592,4.94543 l -0.18599,3.50413 -0.71388,-1.12288 c -0.39263,-0.61758 -1.38029,-2.15466 -2.1948,-3.41574 l -1.48093,-2.29287 -1.27706,0.33209 c -0.80576,0.20952 -1.26369,0.46984 -1.24082,0.70536 0.0199,0.20531 0.65197,2.81407 1.40453,5.79724 2.29991,9.116957 1.97055,8.427427 3.78475,7.923597 z m 11.64166,-3.174997 c 0.54571,-0.15156 0.99219,-0.40495 0.99219,-0.5631 0,-0.252 -3.44544,-14.03681 -3.53718,-14.15186 -0.0195,-0.0245 -0.61273,0.0876 -1.31826,0.24906 -1.23882,0.28348 -1.27825,0.32146 -1.15058,1.1082 0.36928,2.27561 3.47629,13.63599 3.72903,13.63471 0.16094,-7.9e-4 0.7391,-0.12547 1.2848,-0.27701 z m 7.15303,-2.03714 c -0.0313,-0.15098 -0.70236,-2.84823 -1.4913,-5.99387 -0.78893,-3.14563 -1.35775,-5.76673 -1.26403,-5.82465 0.0937,-0.0579 0.61597,-0.1889 1.16057,-0.29107 1.08103,-0.2028 1.12128,-0.30555 0.7058,-1.80179 -0.20885,-0.75213 -0.38767,-0.97269 -0.69348,-0.85535 -0.22662,0.087 -1.84976,0.52109 -3.60696,0.96471 -1.7572,0.44363 -3.27406,0.85551 -3.3708,0.9153 -0.32959,0.2037 0.35764,2.5302 0.70771,2.39587 0.18214,-0.0699 0.74479,-0.20467 1.25034,-0.29952 0.75307,-0.14127 0.94531,-0.0843 1.06375,0.31522 0.0795,0.26821 0.75845,2.8689 1.50876,5.77932 0.75031,2.91042 1.41066,5.36876 1.46744,5.46299 0.1647,0.27331 2.62513,-0.46337 2.5622,-0.76716 z m 3.95734,-0.77957 c 0.79417,-0.15883 0.79571,-0.16274 0.65921,-1.66817 l -0.13683,-1.50896 1.31449,-0.30342 c 1.92715,-0.44484 2.02134,-0.41334 2.6532,0.88721 0.61599,1.2679 0.80755,1.33518 2.39025,0.83956 l 0.9912,-0.3104 -3.63704,-6.67957 c -2.25792,-4.14678 -3.78752,-6.67945 -4.03391,-6.67926 -0.21828,1.8e-4 -0.84336,0.12432 -1.38906,0.27587 l -0.99219,0.27555 v 7.68916 7.68916 l 0.69233,-0.17376 c 0.38078,-0.0956 1.05054,-0.2454 1.48835,-0.33297 z m 0.46327,-6.52408 c -0.001,-0.45747 -0.0656,-1.6652 -0.14355,-2.68385 l -0.14168,-1.85208 1.1886,2.24896 c 0.65374,1.23693 1.19458,2.32377 1.20189,2.41521 0.007,0.0914 -0.46296,0.28714 -1.04504,0.43489 l -1.05833,0.26863 -0.002,-0.83176 z m 10.71751,3.83621 c 3.46867,-0.90333 4.6296,-1.97502 4.62676,-4.2711 -0.002,-1.34455 -1.59093,-7.73 -2.23286,-8.97136 -0.45237,-0.87479 -2.12569,-1.88064 -3.11096,-1.87003 -0.33322,0.004 -1.67742,0.28183 -2.98711,0.61831 -1.64181,0.42182 -2.36999,0.72789 -2.345,0.98567 0.0442,0.45618 2.61588,10.67706 3.173,12.61085 0.22009,0.76398 0.54056,1.38702 0.71213,1.38453 0.17158,-0.002 1.14539,-0.22159 2.16404,-0.48687 z m -0.64138,-3.43697 c -0.13807,-0.53153 -0.67532,-2.58109 -1.19389,-4.55456 -0.51857,-1.97348 -0.94285,-3.71641 -0.94285,-3.87316 0,-0.15676 0.43445,-0.36652 0.96545,-0.46614 1.46851,-0.27549 1.82349,0.27274 2.87204,4.43562 1.0423,4.13805 0.98986,4.67593 -0.50042,5.13331 -0.94872,0.29117 -0.94946,0.29076 -1.20033,-0.67507 z m 12.56843,0.25163 c 1.31379,-0.59669 2.15312,-1.61138 2.39762,-2.89854 0.2071,-1.09022 -1.45717,-8.1276 -2.34535,-9.91732 -0.73613,-1.48336 -2.45653,-2.21021 -4.25098,-1.79601 -2.308,0.53275 -3.6273,1.9237 -3.6273,3.82429 0,1.18841 2.01255,8.84204 2.53451,9.63867 1.03824,1.58455 3.26688,2.06845 5.2915,1.14891 z m -2.77956,-2.51763 c -0.49458,-0.59594 -2.17024,-7.30067 -2.083,-8.33464 0.0637,-0.75486 0.22336,-0.98985 0.81258,-1.19582 1.18771,-0.41518 1.68259,0.35604 2.71773,4.2353 1.02162,3.82859 1.0998,4.65193 0.4988,5.25292 -0.51689,0.5169 -1.53386,0.53897 -1.94611,0.0422 z m -59.13106,0.9648 c 0.1845,-0.12485 0.28715,-1.56675 0.28696,-4.03085 -4.5e-4,-5.85759 0.98591,-10.09217 3.54772,-15.23069 4.59666,-9.22007 13.30181,-15.72681 23.74339,-17.7472 3.0315,-0.58658 8.6629,-0.58358 11.74539,0.006 4.56123,0.8728 8.55455,2.50105 12.38647,5.05052 5.42816,3.61148 9.54585,8.48158 12.12943,14.34578 0.4365,0.99076 0.92056,1.78947 1.07569,1.77492 0.15514,-0.0145 0.52019,-0.0443 0.81123,-0.0661 0.29104,-0.0218 0.52916,-0.19887 0.52916,-0.39342 0,-0.80316 -3.28352,-6.81917 -4.87456,-8.93108 -9.02839,-11.98409 -24.67219,-16.90294 -38.91398,-12.23563 -11.68429,3.82916 -20.67343,13.96972 -23.29864,26.28294 -0.503764,2.36286 -0.794521,7.76709 -0.531249,9.87425 0.187829,1.50334 0.550999,1.84981 1.362989,1.30034 z m 71.83501,-1.00019 c 1.62988,-0.84285 2.11622,-3.42616 1.08423,-5.75914 -0.6447,-1.45747 -1.68741,-2.17145 -3.74668,-2.56551 -1.79102,-0.34273 -2.15307,-0.53085 -2.62707,-1.36506 -0.84162,-1.48118 0.62773,-3.02489 1.83728,-1.93025 0.28518,0.25808 0.51851,0.62938 0.51851,0.8251 0,0.19573 0.14883,0.35521 0.33073,0.3544 0.50705,-0.002 2.3151,-0.53565 2.3151,-0.68296 0,-0.0717 -0.24293,-0.60658 -0.53984,-1.18857 -1.83888,-3.60451 -7.39766,-2.23046 -7.39766,1.82859 0,2.53604 1.49678,4.2363 4.11335,4.67255 2.29888,0.38327 3.0304,1.05515 3.0304,2.78334 0,1.45052 -1.97728,1.75538 -2.5948,0.40007 -0.33934,-0.74477 -0.54361,-0.78523 -1.96779,-0.38971 l -0.99071,0.27514 0.40703,0.98015 c 0.53151,1.27994 1.1333,1.8624 2.35986,2.28407 1.08998,0.37472 2.50231,0.18404 3.86806,-0.52221 z m -67.58444,-3.19348 c 0.0825,-6.54714 1.77617,-11.88175 5.40451,-17.02274 6.9893,-9.90314 19.53786,-14.41655 31.34489,-11.27399 8.17009,2.17456 15.48692,8.30997 18.90801,15.85503 0.80138,1.76741 1.21772,2.06443 2.10615,1.50255 0.32843,-0.2077 0.24614,-0.54451 -0.52916,-2.16589 -3.42862,-7.17025 -9.44846,-12.89247 -16.509,-15.69279 -4.07356,-1.61563 -6.52898,-2.07334 -11.26427,-2.09973 -4.59641,-0.0256 -5.8987,0.15477 -9.75412,1.35113 -10.37555,3.21961 -18.47726,12.2306 -20.82958,23.16735 -0.47349,2.20143 -0.79471,7.60337 -0.53457,8.99001 0.16355,0.87183 0.23019,0.92749 0.89695,0.74928 l 0.72027,-0.19251 z m 14.53288,-0.91122 c 0.44796,-0.27525 0.95398,-0.80664 1.12448,-1.18086 0.31697,-0.69568 0.42616,-2.56784 0.16499,-2.82901 -0.0798,-0.0798 -0.60912,-0.0272 -1.17635,0.11676 -0.93805,0.2381 -1.03861,0.34894 -1.11175,1.2254 -0.0721,0.86381 -0.16556,0.97192 -0.90244,1.04371 -0.97992,0.0955 -1.07714,-0.0951 -2.09404,-4.1049 -0.54121,-2.1341 -0.62278,-2.81856 -0.38813,-3.25701 0.42376,-0.79181 1.60826,-0.61021 2.04919,0.31416 0.31598,0.66242 0.39643,0.68886 1.32487,0.43535 0.54366,-0.14845 1.03186,-0.31077 1.0849,-0.36071 0.053,-0.0499 -0.15986,-0.62024 -0.47311,-1.26732 -0.67921,-1.40307 -1.62976,-1.8875 -3.32806,-1.69608 -1.53378,0.17288 -2.45898,0.7991 -2.96323,2.00566 -0.38561,0.92265 -0.3619,1.14898 0.47048,4.49204 0.48211,1.93624 1.09385,3.87774 1.35942,4.31444 0.94453,1.55316 3.02701,1.87391 4.85878,0.74837 z m 6.9043,-1.56818 c 0.61503,-0.007 1.92831,-1.37961 2.17498,-2.27298 0.20781,-0.75262 0.043,-1.73447 -0.94104,-5.60539 -0.65614,-2.58112 -1.23026,-4.73054 -1.27582,-4.77648 -0.0456,-0.046 -0.55731,0.0442 -1.13722,0.20038 l -1.05437,0.28391 1.15151,4.56212 c 0.63333,2.50917 1.08775,4.77048 1.00983,5.02514 -0.0917,0.29978 -0.408,0.46302 -0.89707,0.46302 -0.87905,0 -0.81127,0.16511 -2.28088,-5.55624 -0.542,-2.11006 -1.01302,-3.87406 -1.04671,-3.92 -0.0337,-0.046 -0.55559,0.0496 -1.15975,0.21226 -0.8411,0.22648 -1.06781,0.40104 -0.96758,0.74499 0.072,0.24706 0.63582,2.3968 1.25294,4.77719 0.92225,3.55742 1.25504,4.46102 1.86915,5.07513 0.77543,0.77542 1.55506,1.05677 2.46243,0.88863 0.29105,-0.0539 0.66886,-0.0997 0.8396,-0.10168 z m 6.61243,-1.6789 c 0.035,-0.0349 -0.17521,-0.99557 -0.46703,-2.13471 -0.29182,-1.13913 -0.49454,-2.09599 -0.45049,-2.12634 0.044,-0.0303 0.64816,-0.26572 1.34248,-0.52304 1.97442,-0.73173 2.53182,-2.41272 1.63907,-4.94305 -0.49776,-1.4108 -1.27807,-2.27692 -2.24211,-2.48865 -0.60743,-0.13342 -4.58465,0.66254 -4.90342,0.98132 -0.0534,0.0534 0.57451,2.69396 1.3954,5.86788 l 1.49252,5.77075 1.06501,-0.1703 c 0.58576,-0.0937 1.09361,-0.1989 1.12857,-0.23386 z m -1.98263,-7.86989 c -0.45879,-1.98758 -0.42899,-2.09648 0.57355,-2.09648 0.69007,0 0.95082,0.14758 1.19062,0.6739 0.66719,1.46431 0.24792,2.76568 -0.89104,2.76568 -0.45975,0 -0.62001,-0.24652 -0.87313,-1.3431 z m 11.48465,5.29613 c 0.94369,-0.57985 1.43466,-1.5072 1.43409,-2.70871 -5.3e-4,-1.11067 -1.50803,-6.71738 -2.05519,-7.64364 -0.56094,-0.9496 -1.64729,-1.37238 -3.10435,-1.20815 -1.53378,0.17288 -2.45898,0.79909 -2.96323,2.00565 -0.38561,0.92265 -0.3619,1.14899 0.47048,4.49205 0.48211,1.93624 1.09385,3.87774 1.35942,4.31444 0.94453,1.55316 3.02701,1.8739 4.85878,0.74836 z m -3.01649,-2.28545 c -0.16137,-0.40784 -0.60175,-1.9574 -0.97862,-3.44345 -0.53104,-2.09397 -0.62028,-2.82323 -0.39662,-3.24114 0.35684,-0.66675 1.48221,-0.71393 1.81829,-0.0762 0.50381,0.956 1.65341,5.7038 1.57548,6.50672 -0.0699,0.71998 -0.19471,0.84653 -0.90311,0.91555 -0.68905,0.0671 -0.86948,-0.0399 -1.11542,-0.66146 z m 10.14759,0.44518 c 1.7653,-0.85457 2.22,-2.74783 1.17725,-4.90185 -0.56744,-1.17218 -1.59918,-1.8012 -3.48312,-2.12358 -1.2253,-0.20966 -1.86906,-0.89741 -1.75692,-1.87696 0.0724,-0.63193 0.20724,-0.751 0.85089,-0.751 0.63449,0 1.20177,0.46379 1.36663,1.11731 0.032,0.12697 1.9695,-0.48957 1.9695,-0.62673 0,-0.0803 -0.19465,-0.55621 -0.43255,-1.05756 -0.73484,-1.54856 -2.37899,-2.06204 -4.18558,-1.3072 -1.17244,0.48988 -1.82039,1.51852 -1.8187,2.88723 0.003,2.18274 1.06201,3.29981 3.68702,3.88809 0.70013,0.1569 1.419,0.40648 1.5975,0.55462 0.50116,0.41593 0.71616,1.78628 0.34957,2.228 -0.52328,0.6305 -1.54898,0.47576 -1.89608,-0.28605 -0.26207,-0.57518 -0.42339,-0.64747 -1.11881,-0.5013 -1.24582,0.26186 -1.38733,0.53738 -0.81851,1.59361 0.91421,1.69758 2.54159,2.11719 4.51191,1.16337 z"
           id="path15859" /><path
           style="fill:#002130;fill-opacity:1;stroke-width:0.264583"
           d="m 101.85296,98.009961 c -0.91155,-3.6027 -1.7247,-6.801363 -1.80699,-7.108145 -0.12805,-0.477369 0.0143,-0.599397 0.98738,-0.846386 0.62534,-0.158729 1.18245,-0.243133 1.23801,-0.187568 0.0556,0.05557 0.75204,2.696726 1.54773,5.869249 0.79568,3.17252 1.49391,5.815439 1.55162,5.873149 0.0577,0.0577 0.87783,-0.0892 1.82248,-0.32651 0.94466,-0.23729 1.77315,-0.43144 1.8411,-0.43144 0.16171,0 0.77469,1.85933 0.65308,1.98095 -0.0514,0.0514 -1.30065,0.39943 -2.77616,0.77345 -1.47551,0.37403 -2.84433,0.7416 -3.04181,0.81683 -0.27171,0.1035 -0.7623,-1.45689 -2.01644,-6.413579 z m 9.34195,4.201079 c -0.0754,-0.23798 -0.89912,-3.427929 -1.83056,-7.088779 l -1.69351,-6.656093 1.09324,-0.277495 c 0.60128,-0.152622 1.16434,-0.193474 1.25124,-0.09078 0.124,0.146524 3.35937,12.712807 3.51211,13.641147 0.0204,0.1239 -0.46526,0.37814 -1.07921,0.56498 -0.98779,0.3006 -1.13205,0.2899 -1.25331,-0.093 z m 2.82889,-7.111499 c -0.91155,-3.602692 -1.72508,-6.802862 -1.80786,-7.111483 -0.12122,-0.451985 -0.005,-0.595953 0.59904,-0.740169 0.41223,-0.09847 0.953,-0.239392 1.2017,-0.313156 0.43654,-0.129479 0.96409,0.583777 4.12955,5.583203 l 0.6701,1.058334 0.18407,-0.684975 c 0.10124,-0.376737 0.27089,-2.190117 0.37699,-4.029733 l 0.19292,-3.34476 0.96584,-0.268269 c 0.53122,-0.14755 1.08939,-0.268935 1.24039,-0.269745 0.24077,-0.0013 3.53076,12.268133 3.64897,13.608183 0.0343,0.38887 -0.19801,0.57188 -0.96136,0.757302 -0.55362,0.13448 -1.06691,0.18418 -1.14064,0.11046 -0.0737,-0.0737 -0.55628,-1.783742 -1.07233,-3.800012 -0.51606,-2.016272 -1.02665,-3.761143 -1.13465,-3.877491 -0.108,-0.116345 -0.2792,1.069748 -0.38044,2.635761 -0.10125,1.56602 -0.20846,2.86681 -0.23826,2.89065 -0.0298,0.0238 -0.30897,0.12154 -0.6204,0.21711 -0.48981,0.15031 -0.7708,-0.15046 -2.08208,-2.22862 -0.83372,-1.321315 -1.57029,-2.347948 -1.63683,-2.281411 -0.0665,0.06654 0.30485,1.739651 0.82531,3.718021 0.52046,1.97838 0.94629,3.760169 0.94629,3.959529 0,0.19936 -0.32742,0.42855 -0.7276,0.50931 -0.40018,0.0808 -0.9062,0.21557 -1.12448,0.29958 -0.32177,0.12384 -0.71052,-1.08686 -2.05424,-6.397619 z m 13.31069,2.87816 c -0.0754,-0.23797 -0.89912,-3.42792 -1.83055,-7.088772 l -1.69352,-6.656094 1.09324,-0.277495 c 0.60129,-0.152622 1.16435,-0.193474 1.25125,-0.09078 0.12399,0.146523 3.35936,12.712811 3.51211,13.641151 0.0204,0.1239 -0.46526,0.37813 -1.07922,0.56497 -0.98778,0.30061 -1.13205,0.2899 -1.25331,-0.093 z m 5.95592,-2.07356 c -0.15513,-0.55273 -0.84692,-3.244626 -1.53731,-5.982 l -1.25527,-4.977048 -0.87868,0.163915 c -0.48328,0.09015 -1.04059,0.226041 -1.23846,0.301974 -0.24076,0.09239 -0.45099,-0.19228 -0.6355,-0.860533 -0.15165,-0.549225 -0.23124,-1.043078 -0.17687,-1.097447 0.0988,-0.09881 6.77022,-1.912305 7.04204,-1.914247 0.0791,-5.29e-4 0.27151,0.47752 0.42762,1.062411 l 0.28385,1.063437 -1.15523,0.290888 c -0.75091,0.189082 -1.15523,0.436525 -1.15523,0.707001 0,0.335933 2.30588,9.56995 2.79636,11.198169 0.0919,0.30501 -0.0864,0.48401 -0.60546,0.60788 -0.40463,0.0966 -0.93687,0.23519 -1.18275,0.30806 -0.33656,0.0997 -0.51677,-0.11591 -0.72911,-0.87246 z m 4.74805,-7.872133 v -7.528634 l 0.99218,-0.205221 c 0.54571,-0.112871 1.08125,-0.207563 1.1901,-0.210426 0.31028,-0.0081 7.32866,12.936998 7.12633,13.14427 -0.0993,0.101692 -0.65763,0.261119 -1.2408,0.354285 -1.05044,0.167812 -1.06581,0.15808 -1.65021,-1.04479 -0.32444,-0.6678 -0.74843,-1.214181 -0.94219,-1.214181 -0.19375,0 -0.96921,0.183206 -1.72323,0.407125 l -1.37093,0.407125 v 1.419077 c 0,1.353813 -0.0383,1.432433 -0.83324,1.709543 -1.63362,0.56948 -1.54801,0.96974 -1.54801,-7.238173 z m 4.39906,1.220618 c 0.20022,-0.117086 -0.12605,-1.078013 -0.99426,-2.928276 -0.71076,-1.5147 -1.34402,-2.702271 -1.40724,-2.639044 -0.0632,0.06323 -0.0439,1.461162 0.0429,3.106526 l 0.15782,2.991567 0.9514,-0.17825 c 0.52327,-0.09804 1.08551,-0.256675 1.24942,-0.352523 z m 4.6592,-2.619748 c -0.91155,-3.602696 -1.72363,-6.797267 -1.80461,-7.099046 -0.13172,-0.490854 0.0742,-0.609377 1.95378,-1.124479 2.57509,-0.705715 3.90401,-0.726273 4.96895,-0.07687 1.08907,0.664115 1.48513,1.586357 2.62343,6.108814 1.05661,4.197892 1.05607,5.054983 -0.004,6.314744 -0.72072,0.856522 -1.36076,1.155774 -3.75664,1.756418 -0.90482,0.226838 -1.79779,0.470561 -1.98437,0.541607 -0.24556,0.0935 -0.7969,-1.679641 -1.9966,-6.421186 z m 4.8759,3.354964 c 1.38467,-0.526454 1.44807,-1.213725 0.46842,-5.078404 -1.1667,-4.602594 -1.58105,-5.169278 -3.41036,-4.664181 -0.84278,0.232701 -0.96554,0.35863 -0.82762,0.848995 0.0891,0.316672 0.65122,2.510534 1.24923,4.875247 0.71223,2.81631 1.20694,4.299479 1.4341,4.299479 0.19073,0 0.67953,-0.12651 1.08623,-0.281136 z m 6.5694,-1.107926 c -0.82247,-0.768813 -1.03225,-1.279329 -1.98049,-4.819727 -1.6018,-5.980567 -1.40056,-7.468915 1.16759,-8.635306 2.10216,-0.954757 4.41519,-0.395997 5.26759,1.2725 0.61171,1.197369 2.29383,8.100086 2.29383,9.412927 0,2.164467 -1.81371,3.629501 -4.49331,3.629501 -1.1414,0 -1.46888,-0.124864 -2.25521,-0.859895 z m 4.03654,-1.98328 c 0.46126,-0.603848 0.43352,-0.864124 -0.47317,-4.43861 -0.97932,-3.860832 -1.23849,-4.542433 -1.90459,-5.008983 -0.726,-0.508511 -2.00361,-0.04072 -2.21762,0.811964 -0.17065,0.679947 1.31373,7.145864 1.91601,8.346045 0.19422,0.387035 0.50446,0.767064 0.68943,0.844511 0.53358,0.223414 1.62866,-0.08197 1.98994,-0.554927 z m 6.17037,0.263078 c -0.94671,-0.48274 -1.71312,-1.388091 -1.98946,-2.35013 -0.13157,-0.458038 -0.0233,-0.597736 0.57351,-0.740166 0.40462,-0.09656 0.92928,-0.232786 1.16591,-0.302715 0.2697,-0.07971 0.47994,0.063 0.56349,0.382492 0.2175,0.831726 1.33043,1.416195 2.12293,1.114885 0.79346,-0.301672 1.09116,-1.050411 0.8515,-2.141574 -0.23809,-1.084019 -1.22846,-1.778241 -3.04732,-2.136079 -0.84847,-0.166929 -1.88855,-0.513837 -2.31127,-0.770906 -1.61536,-0.982361 -2.31041,-4.283422 -1.21214,-5.756881 1.20399,-1.615284 3.77604,-2.244354 5.24393,-1.282557 0.70474,0.461767 1.7215,1.902854 1.72329,2.442482 5.3e-4,0.164201 -0.47526,0.419431 -1.05735,0.56718 -0.64551,0.163848 -1.05833,0.171712 -1.05833,0.02016 0,-0.136663 -0.28905,-0.537527 -0.64233,-0.890812 -0.55817,-0.558168 -0.74567,-0.606314 -1.4309,-0.367443 -0.94369,0.328975 -1.26677,1.27993 -0.77931,2.293855 0.42054,0.874739 1.22289,1.293278 3.19581,1.667079 2.05226,0.388832 3.18664,1.490877 3.64559,3.541678 0.57268,2.559024 -0.23742,4.053171 -2.63928,4.867833 -1.23051,0.417365 -1.85571,0.383434 -2.91827,-0.158379 z M 115.6993,82.529916 c -0.73173,-0.735923 -0.98019,-1.364898 -1.72334,-4.362643 -1.17232,-4.728935 -0.99349,-5.551435 1.42693,-6.562751 1.79226,-0.748853 3.79372,0.151495 4.2337,1.90451 0.20309,0.809183 0.22887,0.77702 -0.79926,0.996961 -0.69134,0.147894 -0.85671,0.07697 -1.10835,-0.475311 -0.62091,-1.362758 -2.44469,-1.07878 -2.44469,0.380659 0,1.203806 1.34595,6.317876 1.77594,6.747869 0.86816,0.868154 2.19281,0.126405 2.19281,-1.227881 0,-0.441566 0.14226,-0.776404 0.33073,-0.778462 0.1819,-0.0021 0.59862,-0.07541 0.92604,-0.163153 0.56166,-0.150516 0.59531,-0.08153 0.59531,1.220378 0,1.188384 -0.10886,1.481603 -0.7843,2.112563 -1.42698,1.332999 -3.41362,1.422095 -4.62152,0.207261 z m 8.518,-1.670947 c -0.39835,-0.216143 -0.89885,-0.730581 -1.11222,-1.143193 -0.38048,-0.735756 -2.62622,-9.290187 -2.47423,-9.424778 0.0426,-0.0377 0.45283,-0.148908 0.91169,-0.247137 0.98092,-0.209987 0.92614,-0.331346 2.20244,4.879284 0.98758,4.031914 1.17725,4.497917 1.83075,4.497917 1.67734,0 1.70538,-0.583174 0.2916,-6.066144 -0.57887,-2.244974 -1.01769,-4.11657 -0.97515,-4.159105 0.0425,-0.04253 0.47322,-0.110736 0.95708,-0.151564 l 0.87976,-0.07423 1.16484,4.365625 c 1.4869,5.572604 1.36318,6.622095 -0.89326,7.577143 -1.08094,0.457515 -1.869,0.442277 -2.7833,-0.05382 z m 6.95514,-1.900928 c -0.77924,-2.798178 -2.67898,-10.450795 -2.6082,-10.506421 0.21994,-0.172837 3.71256,-0.936808 4.28277,-0.936808 1.56815,0 2.8102,2.036366 2.8102,4.607393 0,1.458802 -0.81248,2.41662 -2.28411,2.692699 -0.4932,0.09253 -0.94864,0.252201 -1.01207,0.354836 -0.0634,0.102631 0.11444,1.071401 0.39527,2.152819 0.28082,1.081415 0.51263,1.98433 0.51512,2.006473 0.005,0.04428 -1.61312,0.621196 -1.7423,0.621196 -0.0442,0 -0.20471,-0.446484 -0.35668,-0.992187 z m 2.0729,-6.054063 c 0.53494,-0.374687 0.59343,-0.574591 0.44314,-1.514441 -0.27477,-1.718344 -1.37225,-2.4956 -2.50841,-1.776505 -0.32203,0.203822 -0.3083,0.488463 0.0955,1.980324 0.50997,1.883974 0.83879,2.102766 1.96974,1.310622 z m 5.50846,3.840858 c -0.77582,-0.78009 -1.00392,-1.352132 -1.76786,-4.433668 -1.03024,-4.155665 -0.95671,-5.067683 0.48677,-6.037786 1.27075,-0.854017 2.44442,-1.013 3.56229,-0.482537 1.17679,0.558427 1.55653,1.363475 2.53688,5.378164 0.62643,2.565313 0.7304,3.382577 0.52498,4.126545 -0.33155,1.200804 -1.46112,1.990667 -3.12934,2.188245 -1.24374,0.147301 -1.37632,0.103044 -2.21372,-0.738963 z m 3.10221,-1.443715 c 0.22868,-0.228674 0.41578,-0.594053 0.41578,-0.811948 0,-0.584793 -1.28069,-5.533853 -1.63094,-6.302576 -0.61364,-1.346806 -2.33781,-1.048917 -2.33781,0.40391 0,1.203807 1.34595,6.317877 1.77594,6.74787 0.49683,0.496827 1.25893,0.480851 1.77703,-0.03726 z m 4.84569,-0.135628 c -0.25569,-0.1489 -0.69748,-0.726646 -0.98176,-1.283883 l -0.51687,-1.013158 0.81639,-0.163277 c 1.15883,-0.231767 1.27941,-0.21063 1.27941,0.224287 0,0.629243 1.019,1.038212 1.75326,0.70366 0.48787,-0.22229 0.62799,-0.494017 0.62799,-1.217846 0,-1.262366 -0.68939,-1.875938 -2.53923,-2.259962 -1.95006,-0.404831 -2.90249,-1.299255 -3.15146,-2.959513 -0.32233,-2.1494 1.01396,-3.656824 3.23016,-3.643854 1.06605,0.0062 1.94324,0.547118 2.42956,1.498076 0.44081,0.861949 0.36875,1.065858 -0.43205,1.2226 -0.56397,0.110386 -0.85119,-0.01072 -1.27713,-0.538496 -0.43691,-0.541375 -0.69363,-0.644745 -1.25274,-0.504418 -1.45575,0.365369 -1.04059,2.611123 0.54884,2.968892 0.39834,0.08967 1.15481,0.270447 1.68103,0.401738 2.97881,0.743207 3.77232,5.197689 1.14775,6.443126 -0.97754,0.463872 -2.67066,0.525306 -3.36315,0.122028 z"
           id="path15853" /></g></g></g></svg>
